<svg xmlns="http://www.w3.org/2000/svg" width="1000" height="95.085"><path d="M72.522 1021.205v-63.927H63.927s-24.443 47.005-27.397 52.914c-3.224-5.91-27.666-52.914-27.666-52.914H0v63.927h7.52v-48.886c5.373 10.207 25.518 48.886 25.518 48.886h6.178s20.145-38.679 25.517-48.886v48.886h7.79zM270.75 957.278s-20.683 26.591-23.369 30.083c-2.686-3.492-23.1-30.083-23.1-30.083h-10.206s28.471 36.26 29.277 37.335v26.591h7.52v-26.59c.807-1.075 29.278-37.336 29.278-37.336h-9.401z" style="fill:#000" transform="translate(0 -957.277)"/><path d="M162.7 24.4h18.9v-2.7h-16.1v-8.2h15.3v-2.8h-15.3V3.3h15.9V.6h-18.7zM207.1.6v23.8h17.2v-2.7h-14.4V.6h-.7zM245.6.6v23.8h17.2v-2.7h-14.4V.6h-.7zM286.4.6h-2.2v23.8h2.9V.6z" style="fill:#000" transform="matrix(2.686 0 0 2.686 -2.686 -1.611)"/><path d="M881.547 957.278v51.302c-5.64-6.983-41.364-51.302-41.364-51.302h-7.521v63.927h7.52v-51.303c5.641 6.983 41.365 51.303 41.365 51.303h7.521v-63.927h-7.52z" style="fill:#000" transform="translate(0 -957.277)"/><path d="M353.9 24.4h19v-2.7h-16.1v-8.2H372v-2.8h-15.2V3.3h15.9V.6h-18.8z" style="fill:#000" transform="matrix(2.686 0 0 2.686 -2.686 -1.611)"/><path d="M133.226 1001.865h30.083c.806 2.15 8.595 19.34 8.595 19.34h8.596l-29.01-63.927H144.777l-28.74 63.927h8.595s7.52-17.19 8.595-19.34zm15.042-33.575c2.417 5.372 9.938 22.294 11.818 26.323h-23.637c1.88-4.029 9.401-20.682 11.819-26.323zM378.19 973.93c0-10.743-6.984-16.652-19.071-16.652h-33.575v63.927h33.038c15.847 0 21.488-9.401 21.488-18.534 0-2.955-.806-11.55-9.133-15.31 4.835-2.418 7.253-7.252 7.253-13.43zm-44.857-9.4h23.637c7.79 0 13.699.806 13.699 9.67 0 6.983-4.298 10.206-13.162 10.206h-24.174V964.53zm39.216 37.873c0 7.52-5.103 11.55-14.773 11.55h-24.711v-22.026h23.637c8.326 0 15.847.806 15.847 10.476z" style="fill:#000" transform="translate(0 -957.277)"/><path d="M247.3 28.2h-1.8v7.6h1.7v-5.6l4.4 5.6h1.8v-7.6h-1.6v5.6zM272.1 34.7h-5.4v-2.3h4.9v-1h-4.9v-2h5.3v-1.2h-7v7.6h7.1zM294.7 28.2H293l-1.8 5.8-1.9-5.8h-1.8l-1.9 5.8h-.1l-1.7-5.8h-1.7l2.5 7.6h1.8l2-5.8 1.9 5.8h1.7zM315.3 35.8v-3l3.6-4.6H317l-2.5 3.4-2.6-3.4H310l3.6 4.6v3z" style="fill:#000" transform="matrix(2.686 0 0 2.686 -2.686 -1.611)"/><g style="fill:#000"><path d="M337.1 32c0-2.2-1.7-4-4.6-4-2.9 0-4.6 1.8-4.6 4s1.7 4 4.6 4c2.8 0 4.6-1.8 4.6-4zm-7.6 0c0-1.5.9-2.9 2.9-2.9 2.1 0 2.9 1.4 2.9 2.9s-.9 2.9-2.9 2.9c-2.1 0-2.9-1.4-2.9-2.9zM353.3 32.2c.3-.1 1.6-.5 1.6-1.9 0-1.3-1.1-2-3.2-2H347v7.6h1.7v-3.1h2.5c1.6 0 1.9.6 1.9 2 0 .4 0 .8.3 1.1h1.8c-.4-.3-.5-1.1-.5-2 0-1.3-.9-1.6-1.4-1.7zm-1.8-.5h-2.8v-2.4h2.8c.9 0 1.7.2 1.7 1.2 0 .8-.6 1.2-1.7 1.2z" style="fill:#000" transform="matrix(2.686 0 0 2.686 -2.686 -1.611)"/></g><path d="M364.9 28.2v7.6h1.7v-2.5l1.4-1.1 3.2 3.6h2.1l-4.1-4.6 3.8-3h-2.1l-4.3 3.5v-3.5z" style="fill:#000" transform="matrix(2.686 0 0 2.686 -2.686 -1.611)"/></svg>